<svg width="35" height="35" viewBox="0 0 35 35" fill="none" xmlns="http://www.w3.org/2000/svg">
<path d="M17.5 17.5C15.0938 17.5 13.0339 16.6432 11.3203 14.9297C9.60677 13.2161 8.75 11.1562 8.75 8.75C8.75 6.34375 9.60677 4.28385 11.3203 2.57031C13.0339 0.856771 15.0938 0 17.5 0C19.9062 0 21.9661 0.856771 23.6797 2.57031C25.3932 4.28385 26.25 6.34375 26.25 8.75C26.25 11.1562 25.3932 13.2161 23.6797 14.9297C21.9661 16.6432 19.9062 17.5 17.5 17.5ZM0 35V28.875C0 27.6354 0.31901 26.4961 0.957031 25.457C1.59505 24.418 2.44271 23.625 3.5 23.0781C5.76042 21.9479 8.05729 21.1003 10.3906 20.5352C12.724 19.9701 15.0938 19.6875 17.5 19.6875C19.9062 19.6875 22.276 19.9701 24.6094 20.5352C26.9427 21.1003 29.2396 21.9479 31.5 23.0781C32.5573 23.625 33.4049 24.418 34.043 25.457C34.681 26.4961 35 27.6354 35 28.875V35H0ZM4.375 30.625H30.625V28.875C30.625 28.474 30.5247 28.1094 30.3242 27.7812C30.1237 27.4531 29.8594 27.1979 29.5312 27.0156C27.5625 26.0312 25.5755 25.293 23.5703 24.8008C21.5651 24.3086 19.5417 24.0625 17.5 24.0625C15.4583 24.0625 13.4349 24.3086 11.4297 24.8008C9.42448 25.293 7.4375 26.0312 5.46875 27.0156C5.14062 27.1979 4.8763 27.4531 4.67578 27.7812C4.47526 28.1094 4.375 28.474 4.375 28.875V30.625ZM17.5 13.125C18.7031 13.125 19.7331 12.6966 20.5898 11.8398C21.4466 10.9831 21.875 9.95312 21.875 8.75C21.875 7.54688 21.4466 6.51693 20.5898 5.66016C19.7331 4.80339 18.7031 4.375 17.5 4.375C16.2969 4.375 15.2669 4.80339 14.4102 5.66016C13.5534 6.51693 13.125 7.54688 13.125 8.75C13.125 9.95312 13.5534 10.9831 14.4102 11.8398C15.2669 12.6966 16.2969 13.125 17.5 13.125Z" fill="#3B5A9D"/>
<path d="M17.5 17.5C15.0938 17.5 13.0339 16.6432 11.3203 14.9297C9.60677 13.2161 8.75 11.1562 8.75 8.75C8.75 6.34375 9.60677 4.28385 11.3203 2.57031C13.0339 0.856771 15.0938 0 17.5 0C19.9062 0 21.9661 0.856771 23.6797 2.57031C25.3932 4.28385 26.25 6.34375 26.25 8.75C26.25 11.1562 25.3932 13.2161 23.6797 14.9297C21.9661 16.6432 19.9062 17.5 17.5 17.5ZM0 35V28.875C0 27.6354 0.31901 26.4961 0.957031 25.457C1.59505 24.418 2.44271 23.625 3.5 23.0781C5.76042 21.9479 8.05729 21.1003 10.3906 20.5352C12.724 19.9701 15.0938 19.6875 17.5 19.6875C19.9062 19.6875 22.276 19.9701 24.6094 20.5352C26.9427 21.1003 29.2396 21.9479 31.5 23.0781C32.5573 23.625 33.4049 24.418 34.043 25.457C34.681 26.4961 35 27.6354 35 28.875V35H0ZM4.375 30.625H30.625V28.875C30.625 28.474 30.5247 28.1094 30.3242 27.7812C30.1237 27.4531 29.8594 27.1979 29.5312 27.0156C27.5625 26.0312 25.5755 25.293 23.5703 24.8008C21.5651 24.3086 19.5417 24.0625 17.5 24.0625C15.4583 24.0625 13.4349 24.3086 11.4297 24.8008C9.42448 25.293 7.4375 26.0312 5.46875 27.0156C5.14062 27.1979 4.8763 27.4531 4.67578 27.7812C4.47526 28.1094 4.375 28.474 4.375 28.875V30.625ZM17.5 13.125C18.7031 13.125 19.7331 12.6966 20.5898 11.8398C21.4466 10.9831 21.875 9.95312 21.875 8.75C21.875 7.54688 21.4466 6.51693 20.5898 5.66016C19.7331 4.80339 18.7031 4.375 17.5 4.375C16.2969 4.375 15.2669 4.80339 14.4102 5.66016C13.5534 6.51693 13.125 7.54688 13.125 8.75C13.125 9.95312 13.5534 10.9831 14.4102 11.8398C15.2669 12.6966 16.2969 13.125 17.5 13.125Z" fill="black" fill-opacity="0.2"/>
</svg>
